<svg width="1302" height="738" viewBox="0 0 1302 738" fill="none" xmlns="http://www.w3.org/2000/svg">
<g filter="url(#filter0_d_1_245)">
<path d="M1282 318.305C1282.64 323.277 1283.1 328.285 1283.36 333.327L1282.36 333.379C1282.37 333.546 1282.38 333.713 1282.39 333.88C1282.39 334.048 1282.4 334.215 1282.41 334.383L1283.41 334.336C1283.64 339.38 1283.68 344.408 1283.53 349.419L1282.53 349.388L1282.52 349.818C1282.51 350.007 1282.51 350.196 1282.5 350.385L1283.5 350.42C1283.32 355.45 1282.95 360.462 1282.4 365.454L1281.4 365.342C1281.37 365.674 1281.33 366.005 1281.29 366.336L1282.28 366.452C1281.7 371.436 1280.93 376.399 1279.98 381.34L1278.99 381.15C1278.93 381.478 1278.87 381.805 1278.8 382.133L1279.78 382.327C1278.81 387.237 1277.65 392.125 1276.32 396.987L1275.36 396.722C1275.27 397.044 1275.18 397.365 1275.09 397.687L1276.05 397.956C1274.71 402.769 1273.19 407.557 1271.5 412.317L1270.56 411.983C1270.44 412.297 1270.33 412.611 1270.22 412.924L1271.16 413.263C1269.47 417.96 1267.61 422.63 1265.59 427.272L1264.68 426.873C1264.54 427.177 1264.41 427.482 1264.28 427.787L1265.19 428.189C1263.18 432.757 1261.01 437.297 1258.69 441.806L1257.8 441.348C1257.65 441.643 1257.5 441.937 1257.34 442.232L1258.23 442.693C1255.93 447.123 1253.47 451.524 1250.88 455.893L1250.02 455.382C1249.85 455.666 1249.68 455.949 1249.51 456.232L1250.37 456.746C1247.81 461.01 1245.11 465.244 1242.28 469.447L1241.45 468.888C1241.26 469.167 1241.08 469.446 1240.89 469.725L1241.71 470.287C1238.93 474.395 1236.01 478.472 1232.96 482.518L1232.16 481.916L1231.87 482.296C1231.77 482.437 1231.66 482.578 1231.55 482.719L1232.35 483.323C1229.35 487.286 1226.22 491.217 1222.98 495.116L1222.21 494.476L1221.92 494.819C1221.8 494.961 1221.69 495.103 1221.57 495.244L1222.33 495.886C1219.13 499.707 1215.82 503.496 1212.39 507.252L1211.65 506.578C1211.43 506.822 1211.21 507.067 1210.98 507.312L1211.72 507.988C1208.35 511.666 1204.86 515.312 1201.28 518.924L1200.57 518.219C1200.33 518.458 1200.09 518.696 1199.86 518.934L1200.56 519.641C1197.06 523.15 1193.46 526.627 1189.76 530.071L1189.08 529.339C1188.83 529.568 1188.59 529.797 1188.34 530.025L1189.02 530.759C1185.37 534.138 1181.63 537.485 1177.8 540.799L1177.14 540.042L1176.86 540.29C1176.7 540.426 1176.54 540.561 1176.38 540.696L1177.04 541.454C1173.25 544.71 1169.38 547.934 1165.42 551.125L1164.79 550.346C1164.54 550.554 1164.28 550.761 1164.02 550.969L1164.65 551.749C1160.76 554.868 1156.79 557.955 1152.74 561.008L1152.13 560.21L1151.91 560.379C1151.71 560.526 1151.52 560.672 1151.32 560.819L1151.92 561.618C1147.95 564.6 1143.9 567.549 1139.78 570.466L1139.2 569.649C1138.93 569.842 1138.65 570.035 1138.38 570.228L1138.95 571.046C1134.87 573.92 1130.72 576.761 1126.49 579.57L1125.94 578.737C1125.66 578.921 1125.38 579.104 1125.11 579.287L1125.66 580.121C1121.49 582.877 1117.26 585.601 1112.96 588.292L1112.43 587.444C1112.14 587.623 1111.85 587.802 1111.57 587.981L1112.1 588.829C1107.88 591.457 1103.6 594.054 1099.25 596.617L1098.74 595.756C1098.45 595.926 1098.17 596.096 1097.88 596.266L1098.38 597.128C1094.07 599.661 1089.7 602.162 1085.27 604.63L1084.78 603.756C1084.49 603.918 1084.2 604.079 1083.91 604.24L1084.4 605.115C1080.03 607.536 1075.61 609.925 1071.13 612.281L1070.66 611.396C1070.37 611.553 1070.07 611.71 1069.77 611.867L1070.23 612.752C1065.82 615.065 1061.36 617.346 1056.84 619.594L1056.39 618.699C1056.09 618.847 1055.79 618.996 1055.49 619.144L1055.94 620.04C1051.44 622.267 1046.9 624.462 1042.3 626.624L1041.88 625.719C1041.58 625.86 1041.28 626 1040.98 626.141L1041.4 627.046C1036.89 629.159 1032.34 631.24 1027.73 633.29L1027.32 632.376C1027.02 632.512 1026.71 632.649 1026.4 632.785L1026.81 633.699C1022.24 635.725 1017.62 637.72 1012.96 639.682L1012.57 638.761L1012.11 638.955L1011.65 639.147L1012.04 640.07C1007.42 642.004 1002.77 643.906 998.065 645.777L997.695 644.848C997.382 644.972 997.069 645.097 996.755 645.221L997.124 646.15C992.489 647.988 987.811 649.794 983.092 651.568L982.74 650.632C982.427 650.75 982.114 650.867 981.801 650.985L982.152 651.921C977.451 653.682 972.709 655.412 967.926 657.109L967.592 656.167C967.278 656.278 966.963 656.39 966.649 656.501L966.982 657.444C962.288 659.104 957.555 660.733 952.784 662.33L952.467 661.382C952.149 661.489 951.831 661.595 951.513 661.701L951.83 662.65C947.075 664.236 942.283 665.791 937.454 667.314L937.153 666.361L936.586 666.539L936.202 666.66L936.502 667.614C931.738 669.111 926.939 670.577 922.105 672.012L921.821 671.053L921.405 671.177L920.855 671.339L921.138 672.298C916.339 673.717 911.505 675.105 906.639 676.461L906.371 675.498L905.871 675.637L905.408 675.765L905.675 676.729C900.853 678.067 895.998 679.375 891.113 680.65L890.86 679.683L890.397 679.803L889.884 679.937L890.135 680.905C885.297 682.163 880.428 683.39 875.53 684.585L875.293 683.614C874.969 683.693 874.644 683.772 874.32 683.85L874.556 684.822C869.685 686.006 864.784 687.158 859.855 688.279L859.634 687.304C859.306 687.378 858.977 687.453 858.649 687.527L858.869 688.502C853.998 689.605 849.099 690.676 844.173 691.716L843.966 690.738C843.639 690.807 843.312 690.876 842.985 690.945L843.191 691.923C838.279 692.955 833.341 693.956 828.376 694.925L828.185 693.944C827.854 694.008 827.524 694.073 827.193 694.137L827.383 695.119C822.483 696.07 817.558 696.991 812.608 697.881L812.431 696.896C812.102 696.955 811.773 697.014 811.443 697.073L811.619 698.058C806.675 698.941 801.706 699.794 796.713 700.614L796.551 699.628C796.219 699.682 795.886 699.737 795.553 699.791L795.715 700.778C790.789 701.583 785.842 702.357 780.872 703.099L780.724 702.11C780.393 702.16 780.062 702.209 779.731 702.258L779.878 703.247C774.907 703.985 769.914 704.692 764.899 705.367L764.766 704.376C764.434 704.42 764.103 704.465 763.771 704.509L763.903 705.5C758.955 706.162 753.986 706.792 748.997 707.391L748.877 706.398L748.514 706.442L747.88 706.517L747.998 707.51C743.007 708.105 737.995 708.668 732.965 709.2L732.86 708.205C732.529 708.24 732.197 708.275 731.866 708.31L731.97 709.304C727.002 709.824 722.016 710.314 717.012 710.771L716.921 709.775L716.429 709.82L715.92 709.866L716.011 710.862C711.004 711.316 705.979 711.738 700.937 712.128L700.86 711.131C700.528 711.156 700.196 711.182 699.864 711.207L699.94 712.204C694.958 712.585 689.959 712.935 684.945 713.253L684.881 712.255C684.547 712.277 684.213 712.298 683.879 712.319L683.941 713.317C678.924 713.631 673.891 713.913 668.843 714.163L668.793 713.165L668.289 713.189L667.784 713.214L667.832 714.213C662.784 714.459 657.747 714.672 652.724 714.851L652.688 713.852C652.353 713.864 652.019 713.876 651.684 713.887L651.719 714.887C646.697 715.062 641.689 715.204 636.693 715.313L636.671 714.314C636.338 714.321 636.005 714.328 635.672 714.335L635.693 715.335C630.638 715.441 625.596 715.514 620.569 715.554L620.561 714.554C620.226 714.557 619.891 714.559 619.556 714.562L619.563 715.561C614.538 715.597 609.528 715.599 604.533 715.568L604.539 714.568L604.008 714.565L603.54 714.562L603.533 715.562C598.475 715.527 593.432 715.457 588.406 715.355L588.427 714.355C588.092 714.349 587.757 714.342 587.422 714.335L587.401 715.334C582.378 715.228 577.371 715.088 572.381 714.915L572.416 713.915C572.081 713.904 571.747 713.892 571.412 713.88L571.377 714.879C566.32 714.7 561.282 714.486 556.262 714.239L556.312 713.24C555.977 713.224 555.643 713.207 555.309 713.191L555.259 714.189C550.24 713.938 545.24 713.653 540.26 713.335L540.324 712.337C539.987 712.316 539.651 712.294 539.315 712.272L539.25 713.27C534.201 712.943 529.173 712.582 524.165 712.188L524.244 711.191C523.91 711.165 523.577 711.138 523.243 711.112L523.164 712.108C518.151 711.709 513.159 711.276 508.189 710.809L508.282 709.813L507.968 709.784C507.737 709.762 507.507 709.74 507.276 709.718L507.182 710.714C502.146 710.236 497.134 709.725 492.144 709.179L492.253 708.185C491.921 708.149 491.589 708.112 491.257 708.076L491.147 709.07C486.143 708.518 481.162 707.932 476.206 707.313L476.33 706.32C475.996 706.278 475.662 706.237 475.328 706.194L475.203 707.187C470.188 706.555 465.198 705.889 460.234 705.189L460.373 704.198L459.885 704.129L459.382 704.058L459.241 705.048C454.25 704.339 449.284 703.596 444.346 702.818L444.501 701.83C444.169 701.778 443.837 701.726 443.505 701.673L443.348 702.661C438.361 701.87 433.402 701.046 428.471 700.186L428.643 699.201C428.314 699.144 427.986 699.087 427.658 699.029L427.485 700.014C422.51 699.142 417.564 698.235 412.648 697.294L412.836 696.312C412.506 696.248 412.176 696.185 411.847 696.121L411.658 697.103C406.707 696.15 401.787 695.162 396.899 694.139L397.104 693.16C396.779 693.092 396.453 693.024 396.128 692.955L395.922 693.934C390.968 692.892 386.046 691.814 381.158 690.701L381.38 689.726C381.053 689.652 380.727 689.577 380.4 689.503L380.177 690.478C375.273 689.356 370.403 688.199 365.568 687.007L365.808 686.036C365.484 685.956 365.16 685.876 364.836 685.796L364.596 686.766C359.67 685.546 354.781 684.29 349.93 682.999L350.187 682.032C349.864 681.946 349.542 681.86 349.219 681.774L348.96 682.74C344.09 681.437 339.258 680.098 334.465 678.724L334.74 677.763C334.416 677.67 334.092 677.577 333.768 677.484L333.492 678.445C328.629 677.044 323.807 675.608 319.027 674.135L319.322 673.179C319.003 673.081 318.685 672.983 318.367 672.885L318.072 673.84C313.238 672.345 308.447 670.813 303.701 669.244L304.015 668.295C303.696 668.189 303.377 668.084 303.058 667.978L302.743 668.927C297.959 667.34 293.22 665.715 288.526 664.055L288.86 663.112L288.58 663.013C288.361 662.935 288.142 662.858 287.923 662.78L287.588 663.722C282.802 662.022 278.063 660.283 273.375 658.508L273.729 657.573C273.416 657.455 273.104 657.336 272.791 657.217L272.436 658.152C267.717 656.358 263.048 654.526 258.431 652.657L258.807 651.73L258.476 651.597C258.274 651.515 258.072 651.432 257.869 651.35L257.493 652.277C252.804 650.371 248.169 648.427 243.589 646.446L243.986 645.528C243.812 645.453 243.639 645.378 243.466 645.303C243.335 645.246 243.203 645.189 243.072 645.132L242.673 646.049C238.02 644.027 233.423 641.967 228.886 639.869L229.305 638.961C229.001 638.821 228.697 638.68 228.394 638.539L227.973 639.446C223.396 637.321 218.879 635.157 214.424 632.955L214.867 632.059C214.564 631.909 214.261 631.759 213.959 631.609L213.514 632.505C208.969 630.249 204.489 627.954 200.074 625.619L200.542 624.735C200.248 624.58 199.955 624.425 199.661 624.269L199.192 625.152C194.71 622.772 190.295 620.351 185.952 617.892L186.444 617.021C186.153 616.856 185.862 616.691 185.571 616.526L185.076 617.395C180.684 614.897 176.365 612.359 172.119 609.782L172.638 608.927C172.349 608.752 172.061 608.576 171.773 608.4L171.252 609.254C166.92 606.613 162.667 603.93 158.492 601.207L159.039 600.37C158.761 600.189 158.484 600.007 158.207 599.826L157.659 600.662C153.405 597.876 149.236 595.047 145.151 592.178L145.726 591.359C145.452 591.167 145.179 590.975 144.907 590.783L144.33 591.6C140.191 588.678 136.139 585.714 132.178 582.709L132.783 581.912C132.515 581.709 132.247 581.505 131.979 581.301L131.373 582.097C127.354 579.032 123.428 575.925 119.598 572.777L120.233 572.004C119.973 571.79 119.714 571.577 119.455 571.363L118.818 572.133C114.893 568.89 111.071 565.603 107.352 562.274L108.019 561.529C107.772 561.307 107.525 561.086 107.279 560.864L106.61 561.607C102.831 558.206 99.1615 554.76 95.6029 551.272L96.3029 550.558C96.0645 550.324 95.8266 550.09 95.5891 549.856L94.887 550.568C91.275 547.007 87.7788 543.401 84.4011 539.752L85.1349 539.072C84.9069 538.826 84.6795 538.58 84.4525 538.333L83.7165 539.01C80.2883 535.283 76.9836 531.511 73.8052 527.696L74.5735 527.056C74.3577 526.797 74.1425 526.538 73.9279 526.278L73.1574 526.916C69.9273 523.012 66.8294 519.062 63.8668 515.07L64.6699 514.474C64.4731 514.209 64.2769 513.943 64.0813 513.678L63.2761 514.271C60.2615 510.177 57.3891 506.038 54.662 501.855L55.4997 501.309C55.3186 501.031 55.1381 500.753 54.9583 500.475L54.1185 501.018C51.3647 496.758 48.7617 492.453 46.3128 488.104L47.1842 487.614C47.0209 487.324 46.8583 487.034 46.6965 486.743L45.8231 487.23C43.3578 482.809 41.0517 478.344 38.9085 473.835L39.8116 473.406C39.6685 473.105 39.526 472.803 39.3843 472.502L38.4792 472.927C36.3308 468.355 34.3497 463.739 32.5398 459.082L33.4719 458.719C33.351 458.408 33.2309 458.097 33.1115 457.785L32.1777 458.143C30.3738 453.435 28.7447 448.685 27.2943 443.894L28.2514 443.604C28.1547 443.285 28.0588 442.965 27.9637 442.645L27.0052 442.93C25.5709 438.107 24.3176 433.243 23.2493 428.34L24.2264 428.128C24.1554 427.802 24.0853 427.476 24.0159 427.15L23.0378 427.358C21.9933 422.446 21.1343 417.494 20.4651 412.506L21.4562 412.373C21.412 412.043 21.3686 411.714 21.3261 411.384L20.3343 411.512C19.693 406.54 19.24 401.533 18.9792 396.49L19.9779 396.438C19.9692 396.271 19.9608 396.104 19.9526 395.937C19.9443 395.769 19.9363 395.602 19.9285 395.434L18.9296 395.481C18.6946 390.437 18.6543 385.409 18.8049 380.399L19.8045 380.429C19.8145 380.096 19.8253 379.764 19.837 379.432L18.8376 379.397C19.0144 374.367 19.3836 369.355 19.9413 364.364L20.9352 364.475C20.9722 364.143 21.01 363.812 21.0487 363.481L20.0555 363.365C20.6378 358.381 21.408 353.418 22.3624 348.477L23.3442 348.667C23.4075 348.339 23.4716 348.012 23.5365 347.685L22.5556 347.49C23.5292 342.58 24.6845 337.693 26.018 332.831L26.9824 333.095C27.0706 332.773 27.1597 332.452 27.2495 332.13L26.2863 331.861C27.6307 327.048 29.1495 322.26 30.8393 317.5L31.7817 317.834C31.8931 317.52 32.0053 317.206 32.1182 316.893L31.1773 316.554C32.868 311.857 34.7251 307.187 36.7449 302.545L37.6618 302.944C37.7945 302.64 37.9278 302.335 38.0619 302.03L37.1466 301.628C39.1572 297.06 41.3254 292.52 43.6481 288.011L44.5371 288.469C44.6888 288.174 44.8411 287.88 44.9941 287.586L44.1069 287.124C46.4106 282.694 48.8633 278.293 51.4618 273.924L52.3213 274.435C52.4899 274.152 52.6591 273.868 52.829 273.585L51.9713 273.071C54.528 268.807 57.2237 264.573 60.0554 260.371L60.8847 260.929C61.0728 260.65 61.2615 260.371 61.4508 260.092L60.6235 259.531C63.4123 255.422 66.3313 251.345 69.3774 247.299L70.1763 247.901C70.3779 247.633 70.5801 247.365 70.7828 247.098L69.9859 246.494C72.9895 242.531 76.1152 238.6 79.3605 234.701L80.129 235.341C80.3423 235.085 80.5562 234.829 80.7705 234.573L80.0038 233.931C83.2031 230.11 86.5174 226.321 89.944 222.565L90.6827 223.239C90.9061 222.995 91.1299 222.75 91.3542 222.506L90.6173 221.83C93.9914 218.152 97.4733 214.506 101.061 210.893L101.77 211.598C102.007 211.359 102.244 211.121 102.482 210.883L101.774 210.176C105.277 206.668 108.879 203.19 112.578 199.746L113.26 200.478C113.506 200.249 113.752 200.02 113.999 199.792L113.32 199.058C116.967 195.679 120.708 192.332 124.541 189.018L125.195 189.775C125.447 189.557 125.7 189.339 125.953 189.121L125.301 188.363C129.085 185.107 132.957 181.883 136.916 178.692L137.544 179.471C137.802 179.263 138.06 179.056 138.318 178.848L137.692 178.068C141.58 174.949 145.55 171.862 149.601 168.809L150.203 169.608C150.473 169.404 150.743 169.201 151.013 168.998L150.413 168.199C154.385 165.217 158.435 162.268 162.561 159.352L163.138 160.168C163.411 159.975 163.685 159.782 163.959 159.589L163.383 158.771C167.465 155.897 171.62 153.056 175.848 150.247L176.401 151.08C176.678 150.897 176.955 150.713 177.232 150.53L176.68 149.696C180.844 146.94 185.078 144.216 189.38 141.525L189.91 142.373C190.037 142.294 190.163 142.215 190.289 142.136C190.45 142.036 190.61 141.936 190.77 141.837L190.241 140.988C194.459 138.36 198.741 135.763 203.088 133.2L203.596 134.061C203.884 133.891 204.173 133.721 204.461 133.551L203.955 132.689C208.265 130.156 212.637 127.655 217.07 125.187L217.556 126.061C217.846 125.899 218.137 125.738 218.427 125.577L217.942 124.702C222.305 122.281 226.728 119.892 231.207 117.536L231.673 118.421C231.789 118.359 231.905 118.298 232.022 118.237C232.204 118.142 232.386 118.046 232.568 117.95L232.104 117.065C236.515 114.752 240.982 112.471 245.502 110.223L245.947 111.118C246.246 110.97 246.546 110.821 246.845 110.673L246.401 109.777C250.893 107.55 255.438 105.355 260.035 103.194L260.461 104.098C260.76 103.958 261.06 103.817 261.36 103.676L260.936 102.771C265.444 100.658 270.001 98.5766 274.607 96.5274L275.013 97.441C275.32 97.3046 275.627 97.1683 275.934 97.0321L275.528 96.118C280.098 94.0918 284.716 92.0971 289.379 90.1347L289.767 91.0565C290.074 90.9274 290.381 90.7985 290.688 90.6697L290.301 89.7475C294.914 87.8134 299.571 85.9107 304.273 84.0402L304.643 84.9694C304.956 84.8449 305.269 84.7205 305.583 84.5962L305.214 83.6666C309.849 81.8292 314.527 80.023 319.246 78.2487L319.598 79.1848C319.911 79.0672 320.224 78.9498 320.537 78.8325L320.186 77.8961C324.887 76.1349 329.629 74.4054 334.411 72.708L334.746 73.6504C334.917 73.5894 335.089 73.5285 335.261 73.4675C335.404 73.4171 335.546 73.3666 335.689 73.3162L335.356 72.3734C340.05 70.7133 344.783 69.0841 349.553 67.4866L349.871 68.4349C350.188 68.3285 350.506 68.2222 350.824 68.1161L350.508 67.1675C355.263 65.581 360.055 64.0259 364.884 62.5027L365.184 63.4564C365.501 63.3564 365.818 63.2566 366.136 63.1569L365.836 62.2029C370.6 60.7057 375.399 59.2396 380.232 57.8052L380.517 58.7639C380.681 58.7152 380.845 58.6665 381.009 58.6179C381.167 58.5711 381.325 58.5244 381.483 58.4777L381.199 57.5188C385.999 56.0998 390.832 54.7121 395.698 53.3562L395.967 54.3195C396.288 54.2301 396.609 54.1408 396.93 54.0517L396.662 53.0881C401.485 51.7496 406.339 50.4423 411.225 49.1668L411.478 50.1343C411.803 50.0494 412.128 49.9646 412.454 49.8799L412.202 48.9121C417.041 47.6541 421.909 46.4273 426.808 45.232L427.045 46.2035C427.369 46.1244 427.693 46.0455 428.018 45.9666L427.782 44.9949C432.653 43.8113 437.553 42.659 442.482 41.5384L442.704 42.5135C443.032 42.4389 443.361 42.3644 443.689 42.2901L443.468 41.3147C448.34 40.2122 453.239 39.1407 458.165 38.1006L458.371 39.0791C458.698 39.0101 459.025 38.9412 459.353 38.8724L459.147 37.8938C464.059 36.8617 468.997 35.8609 473.961 34.8918L474.153 35.8733C474.483 35.8088 474.814 35.7444 475.145 35.6801L474.954 34.6984C479.855 33.7467 484.78 32.8259 489.73 31.9365L489.906 32.9208C490.236 32.8616 490.565 32.8026 490.894 32.7438L490.718 31.7594C495.663 30.8756 500.632 30.0233 505.624 29.2027L505.786 30.1895C506.119 30.1348 506.452 30.0803 506.784 30.0259L506.623 29.039C511.548 28.2342 516.496 27.4603 521.466 26.7179L521.614 27.7069C521.944 27.6575 522.276 27.6082 522.607 27.559L522.46 26.5698C527.431 25.8318 532.424 25.1252 537.438 24.4504L537.572 25.4415C537.903 25.3969 538.235 25.3524 538.567 25.308L538.434 24.3168C543.383 23.6554 548.352 23.0251 553.341 22.4262L553.46 23.419C553.793 23.3791 554.125 23.3394 554.457 23.2998L554.339 22.3068C559.331 21.7121 564.342 21.1488 569.373 20.6175L569.478 21.612C569.809 21.577 570.14 21.5422 570.471 21.5075L570.367 20.5129C575.335 19.9926 580.322 19.5034 585.326 19.0458L585.417 20.0416C585.75 20.0111 586.084 19.9808 586.417 19.9506L586.327 18.9547C591.334 18.5012 596.359 18.0793 601.4 17.6893L601.478 18.6863C601.81 18.6607 602.142 18.6351 602.474 18.6097L602.398 17.6126C607.38 17.2316 612.378 16.8818 617.393 16.5637L617.456 17.5616C617.79 17.5405 618.125 17.5194 618.459 17.4985L618.396 16.5004C623.413 16.1865 628.446 15.9041 633.495 15.6537L633.544 16.6525L634.049 16.6276L634.554 16.6029L634.505 15.6041C639.554 15.3581 644.59 15.1455 649.614 14.9659L649.65 15.9653C649.984 15.9533 650.319 15.9415 650.653 15.9298L650.618 14.9304C655.64 14.7553 660.649 14.6131 665.644 14.5037L665.666 15.5034C665.999 15.4961 666.332 15.489 666.665 15.482L666.644 14.4822C671.7 14.3758 676.742 14.3029 681.769 14.2631L681.777 15.2631C682.112 15.2604 682.447 15.2579 682.781 15.2556L682.774 14.2556C687.799 14.2203 692.81 14.2181 697.805 14.2486L697.799 15.2486C698.132 15.2506 698.465 15.2528 698.797 15.2551L698.804 14.2552C703.863 14.2906 708.906 14.3596 713.931 14.4619L713.911 15.4617C714.246 15.4685 714.581 15.4755 714.915 15.4826L714.936 14.4828C719.96 14.5895 724.967 14.7295 729.957 14.9024L729.922 15.9018C730.257 15.9134 730.591 15.9251 730.925 15.937L730.961 14.9376C736.017 15.1174 741.056 15.3309 746.075 15.5778L746.026 16.5766C746.36 16.5931 746.695 16.6097 747.029 16.6264L747.079 15.6277C752.098 15.8791 757.097 16.164 762.078 16.4819L762.014 17.4799C762.35 17.5014 762.687 17.523 763.023 17.5448L763.088 16.5469C768.136 16.8738 773.165 17.2348 778.173 17.6293L778.094 18.6262C778.428 18.6525 778.761 18.6789 779.094 18.7055L779.174 17.7086C784.187 18.1083 789.179 18.5416 794.149 19.0081L794.055 20.0037C794.391 20.0352 794.726 20.0669 795.062 20.0987L795.156 19.1032C800.191 19.5807 805.204 20.0924 810.193 20.6378L810.085 21.6319C810.356 21.6615 810.627 21.6913 810.898 21.7211L811.081 21.7413L811.191 20.7473C816.195 21.2992 821.175 21.8851 826.132 22.5045L826.008 23.4968C826.342 23.5386 826.676 23.5805 827.01 23.6226L827.135 22.6304C832.15 23.2622 837.14 23.9284 842.104 24.6285L841.964 25.6187C842.295 25.6653 842.625 25.7121 842.956 25.759L843.096 24.7689C848.088 25.478 853.054 26.2215 857.992 26.9988L857.836 27.9867L858.184 28.0415L858.833 28.1441L858.99 27.1564C863.977 27.9467 868.936 28.7716 873.866 29.6306L873.695 30.6158C874.023 30.673 874.351 30.7303 874.679 30.7879L874.852 29.8029C879.828 30.675 884.774 31.582 889.69 32.5234L889.501 33.5055L890.137 33.6274L890.491 33.6956L890.68 32.7136C895.631 33.6671 900.55 34.6554 905.438 35.6782L905.233 36.657C905.559 36.7251 905.884 36.7933 906.209 36.8617L906.415 35.8832C911.37 36.9254 916.292 38.003 921.179 39.1156L920.957 40.0906C921.284 40.165 921.611 40.2396 921.938 40.3143L922.161 39.3395C927.065 40.4614 931.935 41.6186 936.769 42.8103L936.53 43.7812C936.854 43.8611 937.178 43.9411 937.501 44.0213L937.742 43.0507C942.668 44.2708 947.556 45.5269 952.408 46.8185L952.15 47.7849C952.473 47.8709 952.796 47.957 953.119 48.0434L953.377 47.0773C958.248 48.3802 963.08 49.7189 967.873 51.0929L967.597 52.0542C967.921 52.1471 968.245 52.2402 968.569 52.3334L968.846 51.3725C973.709 52.7728 978.53 54.2095 983.31 55.6819L983.016 56.6376C983.334 56.7356 983.652 56.8338 983.97 56.9322L984.266 55.9768C989.099 57.4724 993.89 59.0046 998.637 60.5728L998.323 61.5223L998.68 61.6405L999.279 61.8389L999.594 60.8898C1004.38 62.4775 1009.12 64.1018 1013.81 65.7622L1013.48 66.7049C1013.79 66.8155 1014.1 66.9262 1014.41 67.0371L1014.75 66.0948C1019.54 67.7955 1024.27 69.5337 1028.96 71.309L1028.61 72.2442C1028.92 72.3625 1029.23 72.481 1029.55 72.5997L1029.9 71.665C1034.62 73.4593 1039.29 75.2911 1043.91 77.1597L1043.53 78.0866C1043.84 78.2132 1044.16 78.3399 1044.47 78.4668L1044.84 77.5404C1049.53 79.4463 1054.17 81.3902 1058.75 83.3715L1058.35 84.2893C1058.66 84.4212 1058.96 84.5532 1059.27 84.6855L1059.66 83.7683C1064.32 85.7898 1068.91 87.85 1073.45 89.9482L1073.03 90.8558C1073.34 90.9964 1073.64 91.1372 1073.94 91.2782L1074.36 90.3712C1078.94 92.4963 1083.46 94.6601 1087.91 96.8617L1087.47 97.7583C1087.77 97.908 1088.08 98.058 1088.38 98.2081L1088.82 97.3124C1093.37 99.5682 1097.85 101.864 1102.26 104.198L1101.8 105.082C1102.09 105.237 1102.38 105.393 1102.68 105.548L1103.15 104.665C1107.63 107.045 1112.04 109.466 1116.39 111.925L1115.89 112.796L1116.21 112.974C1116.39 113.08 1116.58 113.186 1116.77 113.291L1117.26 112.422C1121.65 114.92 1125.97 117.458 1130.22 120.035L1129.7 120.89C1129.99 121.065 1130.28 121.241 1130.56 121.417L1131.09 120.563C1135.42 123.204 1139.67 125.887 1143.85 128.61L1143.3 129.447C1143.58 129.628 1143.85 129.81 1144.13 129.991L1144.68 129.155C1148.93 131.941 1153.1 134.77 1157.19 137.639L1156.61 138.458C1156.89 138.65 1157.16 138.842 1157.43 139.034L1158.01 138.217C1162.15 141.139 1166.2 144.103 1170.16 147.108L1169.55 147.905C1169.82 148.108 1170.09 148.312 1170.36 148.516L1170.96 147.72C1174.98 150.785 1178.91 153.892 1182.74 157.041L1182.1 157.813C1182.36 158.027 1182.62 158.24 1182.88 158.454L1183.52 157.684C1187.44 160.927 1191.27 164.214 1194.99 167.543L1194.32 168.288C1194.57 168.51 1194.81 168.731 1195.06 168.953L1195.73 168.21C1199.51 171.611 1203.18 175.057 1206.73 178.545L1206.03 179.259C1206.27 179.493 1206.51 179.727 1206.75 179.961L1207.45 179.249C1211.06 182.811 1214.56 186.416 1217.94 190.065L1217.2 190.745C1217.43 190.991 1217.66 191.237 1217.89 191.484L1218.62 190.807C1222.05 194.534 1225.35 198.306 1228.53 202.121L1227.76 202.761L1227.86 202.878C1228.04 203.098 1228.23 203.318 1228.41 203.539L1229.18 202.901C1232.41 206.805 1235.51 210.755 1238.47 214.747L1237.67 215.343C1237.86 215.608 1238.06 215.874 1238.26 216.139L1239.06 215.546C1242.08 219.64 1244.95 223.779 1247.68 227.962L1246.84 228.508C1247.02 228.786 1247.2 229.064 1247.38 229.342L1248.22 228.799C1250.97 233.059 1253.58 237.364 1256.02 241.713L1255.15 242.203C1255.32 242.493 1255.48 242.783 1255.64 243.074L1256.51 242.587C1258.98 247.008 1261.29 251.473 1263.43 255.982L1262.53 256.411C1262.67 256.712 1262.81 257.014 1262.95 257.315L1263.86 256.89C1266.01 261.462 1267.99 266.078 1269.8 270.735L1268.87 271.098C1268.99 271.409 1269.11 271.72 1269.23 272.032L1270.16 271.674C1271.96 276.382 1273.59 281.132 1275.04 285.923L1274.09 286.213C1274.18 286.532 1274.28 286.852 1274.37 287.172L1275.33 286.887C1276.77 291.71 1278.02 296.574 1279.09 301.477L1278.11 301.689C1278.18 302.015 1278.25 302.341 1278.32 302.667L1279.3 302.459C1280.34 307.372 1281.2 312.323 1281.87 317.312L1280.88 317.444C1280.93 317.774 1280.97 318.103 1281.01 318.433L1282 318.305Z" stroke="white" stroke-width="2" stroke-dasharray="1 15" shape-rendering="crispEdges"/>
</g>
<defs>
<filter id="filter0_d_1_245" x="0.716064" y="0.227051" width="1300.91" height="737.363" filterUnits="userSpaceOnUse" color-interpolation-filters="sRGB">
<feFlood flood-opacity="0" result="BackgroundImageFix"/>
<feColorMatrix in="SourceAlpha" type="matrix" values="0 0 0 0 0 0 0 0 0 0 0 0 0 0 0 0 0 0 127 0" result="hardAlpha"/>
<feOffset dy="4"/>
<feGaussianBlur stdDeviation="9"/>
<feComposite in2="hardAlpha" operator="out"/>
<feColorMatrix type="matrix" values="0 0 0 0 1 0 0 0 0 1 0 0 0 0 1 0 0 0 0.52 0"/>
<feBlend mode="normal" in2="BackgroundImageFix" result="effect1_dropShadow_1_245"/>
<feBlend mode="normal" in="SourceGraphic" in2="effect1_dropShadow_1_245" result="shape"/>
</filter>
</defs>
</svg>
